<svg width="300" height="37" viewBox="0 0 300 37" fill="none" xmlns="http://www.w3.org/2000/svg">
<g clip-path="url(#clip0_3_169)">
<path d="M58.4711 34.5333C51.8595 34.5333 48.1405 27.3389 48.1405 17.8833C48.1405 9.24999 51.033 2.26112 57.8512 2.26112C62.8099 2.26112 65.7025 5.55001 66.9422 11.5111H69.2149V2.87777C66.3223 1.02777 62.3967 0 57.8512 0C47.5206 0 39.0496 7.60554 39.0496 19.3222C39.0496 30.0111 46.281 37 57.6446 37C62.6033 37 66.9421 35.7667 69.8347 33.7111L70.6612 23.8445H68.3884C66.5289 31.45 63.0165 34.5333 58.4711 34.5333Z" fill="white"/>
<path d="M108.884 32.6833L95.8678 0.205566H86.5703L88.2232 4.31668L77.2727 32.6833C76.8595 34.1222 75.6198 34.3278 74.3802 34.5333V36.3833H85.124V34.5333C82.2314 34.3278 80.5785 33.9167 81.8182 30.8333C82.0248 30.6278 82.8512 28.3666 83.8843 25.4889H97.1074L98.967 30.2167C99.1736 31.0389 99.3802 31.6555 99.3802 32.2722C99.3802 33.9167 97.9339 34.5333 95.2479 34.5333V36.3833H112.19V34.5333C110.331 34.3278 109.298 33.9166 108.884 32.6833ZM84.9174 21.9944C86.9835 16.8555 89.2562 10.8944 90.0827 8.63332L95.4546 21.9944H84.9174Z" fill="white"/>
<path d="M132.025 0.411102H115.702V2.26112C119.215 2.67223 119.628 3.08334 119.628 5.75556V30.8333C119.628 33.5056 119.215 33.9167 115.702 34.3278V36.1778H133.058C144.421 36.1778 152.273 29.3945 152.273 17.6778C152.479 8.22223 145.868 0.411102 132.025 0.411102ZM132.851 34.3278H132.231C129.752 34.3278 128.512 33.7111 128.512 30.6278V2.67223H130.579C139.05 2.67223 143.388 9.45555 143.388 18.9111C143.182 28.3667 139.05 34.3278 132.851 34.3278Z" fill="white"/>
<path d="M175.62 34.3278H173.14C170.041 34.3278 168.802 33.5056 168.802 30.8333V19.1167H174.587C176.859 19.1167 177.686 20.35 178.099 23.8445H180.165V11.9222H178.099C177.686 15.2111 176.859 16.65 174.587 16.65H168.802V2.67223H175.207C179.545 2.67223 180.992 4.31665 183.678 10.0722H185.331L185.124 0.411102H156.198V2.26112C159.711 2.67223 160.124 3.08334 160.124 5.75556V30.8333C160.124 33.5056 159.711 33.9167 156.198 34.3278V36.1778H185.537L187.19 25.4889H185.124C181.405 32.0667 179.959 34.3278 175.62 34.3278Z" fill="white"/>
<path d="M233.884 31.45L230.785 6.16666C230.785 3.49444 231.818 2.67221 235.124 2.46666V0.411102H222.521C222.521 1.02777 222.314 1.43887 222.314 1.84998L221.694 3.49444L214.256 24.6667L206.405 3.7C205.992 2.67223 205.578 1.64445 205.578 0.61667H192.562V2.46666C195.868 2.67221 196.901 3.49444 196.901 6.16666L193.595 31.45C193.388 33.7111 192.355 34.3278 189.256 34.5333V36.3833H201.446V34.5333C200.62 34.5333 200 34.3278 199.38 34.3278C198.14 33.9167 196.694 32.6833 197.107 29.6C197.521 25.6944 198.967 14.8 199.587 10.4833L209.298 36.5889H213.43L222.314 10.8944L224.793 30.0111C224.793 30.2167 224.793 30.4222 224.793 30.6278V31.2444C224.793 33.7111 223.554 34.3278 219.835 34.5333V36.3833H238.017V34.5333C235.331 34.3278 234.298 33.9167 233.884 31.45Z" fill="white"/>
<path d="M242.355 2.46666C245.868 2.87777 246.281 3.28887 246.281 5.9611V31.0389C246.281 33.7111 245.868 34.1222 242.355 34.5333V36.3833H259.091V34.5333C255.579 34.1222 255.165 33.7111 255.165 31.0389V5.9611C255.165 3.28887 255.579 2.87777 259.091 2.46666V0.411102H242.355V2.46666Z" fill="white"/>
<path d="M34.7107 32.6833L21.6942 0.205566H12.3967L14.0496 4.31668L2.89257 32.6833C2.47934 34.1222 1.23967 34.3278 0 34.5333V36.3833H10.7438V34.5333C7.85125 34.3278 6.19834 33.9167 7.43801 30.8333C7.64463 30.6278 8.47107 28.3666 9.50413 25.4889H22.7273L24.5868 30.2167C24.7934 31.0389 25 31.6555 25 32.2722C25 33.9167 23.5537 34.5333 20.8678 34.5333V36.3833H37.8099V34.5333C36.3636 34.3278 35.124 33.9166 34.7107 32.6833ZM10.7438 21.9944C12.8099 16.8555 15.0827 10.8944 15.9091 8.63332L21.281 21.9944H10.7438Z" fill="white"/>
<path d="M297.934 33.9167C297.314 33.7111 297.107 33.3 296.694 32.6833L283.678 0.411102H274.38L276.033 4.52221L265.083 32.8889C264.669 34.3278 263.43 34.5333 262.19 34.7389V36.5889H272.934V34.7389C270.041 34.5333 268.388 34.1222 269.628 31.0389C269.835 30.8333 270.661 28.5722 271.694 25.6944H284.917L286.777 30.4222C286.984 31.2444 287.19 31.8611 287.19 32.4778C287.19 34.1222 285.744 34.7389 283.058 34.7389V36.5889H300V34.7389C298.967 34.3278 298.347 34.3278 297.934 33.9167ZM272.934 21.9944C275 16.8555 277.273 10.8944 278.099 8.63332L283.471 21.9944H272.934Z" fill="white"/>
</g>
<defs>
<clipPath id="clip0_3_169">
<rect width="300" height="37" fill="white"/>
</clipPath>
</defs>
</svg>
